<?xml version="1.0" standalone="no"?><!-- Generator: Gravit.io --><svg xmlns="http://www.w3.org/2000/svg" xmlns:xlink="http://www.w3.org/1999/xlink" style="isolation:isolate" viewBox="-0.03300272037506602 -0.3038030146777526 294.06600544075013 215.60760602935548" width="294.06600544075013" height="215.60760602935548"><path d=" M 88.94402547015548 2.864037118317981 C 85.67475718666364 -0.5536800414643608 80.47243702101119 -1.29476727088894 76.3686758041267 1.0755409823192963 C 72.25935437368318 3.4486146327474785 70.2990701933683 8.337934981155797 71.6366889060557 12.884787361094311 L 71.85851887240315 13.639770221230037 L 28.058961327056608 38.92723903919227 L 27.524415928285435 38.236752695066855 C 24.601498937018846 34.46017131095806 20.13136181399807 32.253600069734375 15.346567596675811 32.253600069734375 C 6.851345788312301 32.253600069734375 -0.03300272037506602 39.13878212013691 -0.03300272037506602 47.6337293500531 C -0.03300272037506602 55.263058218293736 5.573771498238699 61.76157497657465 13.119422584646372 62.85429913333627 L 13.975871987454695 62.978271302319285 L 13.975871987454695 113.85037146289915 L 13.18530179926654 114.01965888206968 C 8.453314901195483 115.0326081935001 5.057005053934063 119.23476655827068 5.057005053934063 124.0812722816371 C 5.057005053934063 128.93028843652223 8.448872614172132 133.13356472782846 13.185027220819165 134.14539611272312 L 13.975871987454695 134.31440895344633 L 13.975871987454695 184.65557246056318 L 13.160844704705255 184.8090127807718 C 5.9090023633459055 186.17220651455608 0.6446961132018885 192.53813130188155 0.6446961132018885 199.92423269762685 C 0.6446961132018885 208.41862096427514 7.530162548424954 215.30352843623035 16.024276236625894 215.30380301467773 C 24.518939081721584 215.30380301467773 31.40384655367677 208.41862096427514 31.40384655367677 199.92423269762685 C 31.40384655367677 198.00842041941115 31.05471025148543 196.11345649044858 30.356437647102695 194.3291280630259 L 30.043153445038058 193.52828079580797 L 67.33251484171777 171.9993202162944 L 67.87484650074626 172.58696712551034 C 68.58229787036922 173.3530704127641 69.40149286169472 174.00464506834942 70.30435582847994 174.5258439933043 C 75.21813327144955 177.36315134723327 81.52263093755138 175.67388590083578 84.36020306355456 170.76038303631356 C 85.80178894406018 168.2644355306918 86.13063586026621 165.29398704891258 85.27141125386495 162.5442506069453 L 85.03291045321342 161.7800987879424 L 134.3858661282816 133.28561254305401 L 134.91457673504638 134.017246428791 C 137.81275224693118 138.02649382154493 142.42798446663554 140.3954095697702 147.38596903963006 140.3954095697702 C 152.34506173278723 140.3954095697702 156.95890144750845 138.02621924309756 159.85791050110848 134.01641288707577 L 160.38690549269373 133.28506338615932 L 209.73596803763328 161.7789808614067 L 209.49885974196476 162.542024560247 C 209.1897432484761 163.53690072601728 209.03324333985407 164.57264004857848 209.03324333985407 165.61449854796666 C 209.03324333985407 171.29854698676604 213.63874763742334 175.90461024760316 219.32280588259582 175.90488482605053 C 222.20763492066433 175.90515940449785 224.93903344489726 174.70764434457595 226.89236490667005 172.58613358379512 L 227.43469656569854 171.99710397596925 L 264.48054610506233 193.38400943446658 L 264.1942294290777 194.17206919113596 C 263.58101730513795 195.8602167109977 263.2708024978599 197.63787680469886 263.2708024978599 199.43360023768702 C 263.2708024978599 207.9279885043353 270.1559845482624 214.81401390282616 278.6503728149107 214.8145630597209 C 287.14586920172155 214.81484744454139 294.03300272037507 207.92938100931838 294.03300272037507 199.43360023768702 C 294.03300272037507 192.0814190865638 288.81372733559806 185.73661722693885 281.604974197728 184.33533553995642 L 280.79579151335804 184.17800208961916 L 280.7952325500902 134.2688191248115 L 281.55966875391357 134.08368460667901 C 286.1657320147507 132.9676114755187 289.42249717251457 128.82883170022268 289.4219382092467 124.0812722816371 C 289.42166363079934 119.33455621113978 286.167958061449 115.19383477396605 281.56106125889664 114.08053684639867 L 280.79579151335804 113.89568671308666 L 280.7952325500902 63.71213123475451 L 281.58107606643455 63.539784227170514 C 288.62275802545923 61.99479994848764 293.65384911006333 55.73560772620027 293.65384911006333 48.51574396758525 C 293.65384911006333 40.02024758077437 286.7700497582707 33.133388640568285 278.2742689866393 33.13366321901566 C 273.93812614593026 33.13394760383608 269.8427003461977 34.94217416255225 266.9175671146061 38.13945386097021 L 266.37551003402496 38.73210202047744 L 222.91258566514173 13.640044799677412 L 223.13469020993662 12.885061939541686 C 224.4731424643392 8.340435606301469 222.51229932075645 3.4475065125849937 218.40464497374333 1.0755409823192963 C 214.28309499601923 -1.3044951930240245 209.06160337091714 -0.320180491104054 205.73394794186876 2.964385734454993 C 204.72545072383483 3.959811057120021 203.93878347214846 5.443368214579152 203.5012427162803 6.77793714522619 C 202.87552746661245 8.686237741631942 202.78990802290176 10.694896760547806 203.3158336197005 12.638500300185626 L 203.53043628905854 13.430453186983698 L 156.7559781685363 36.658407135029734 L 156.28537032250748 35.84921464428669 C 154.84434340526977 33.37161486277245 152.4643072299264 31.618980633273566 149.67231512618494 30.983243270277114 C 146.7724725308697 30.549880029358008 144.8524925440781 30.598245061585885 142.24146724989313 32.106269119979515 C 140.89772936037886 32.88210032936831 139.75024641611517 33.940080506165714 138.87795972071805 35.22348958824574 L 138.3876116455987 35.94511116702711 L 91.4800025908531 12.65240573726976 L 91.62233229031673 11.906866414448643 C 92.33978616052221 8.149750680983004 91.34768519834498 5.6604715090829245 88.94402547015548 2.864037118317981 Z  M 66.69872894697212 160.20257696324734 L 66.53889487148925 160.46999675822968 C 65.09841711114623 162.96510091576317 64.77041354302847 165.93500024064764 65.62824564444665 168.68417771934713 L 65.86647186665081 169.44806476627582 L 28.571275677964792 190.98174221126015 L 28.03450423249535 190.31181983156733 C 25.629451999322868 187.31162862011513 22.191720032002536 185.3074216945958 18.38539591822078 184.7225597953459 L 17.53729173893757 184.59219387108863 L 17.536742582042848 134.16818612385407 L 18.254755415516115 133.95720200617728 C 20.062432817337594 133.4262751590873 21.68886883115519 132.40193084209153 22.956156235825887 131.0092689570816 L 23.534065416533736 130.3743749421734 L 65.54512682588157 158.27815468943226 L 65.61851772231168 158.16112543261823 L 67.31277461262718 159.2238322812595 L 66.69872894697212 160.20257696324734 Z  M 78.72091091167485 113.86927815027451 C 73.94278502807421 113.86927815027451 69.79149232067707 117.17940959055738 68.73351214387966 121.83162164329724 L 68.55672284927229 122.60995347783165 L 25.5635727847027 122.6105026347264 L 25.38928411524094 121.82772851316861 C 25.252514629336275 121.21423200440825 25.059044694051835 120.6138073910169 24.809982429550047 120.03672194565115 L 24.478909466645717 119.26979492305531 L 68.41050001967997 90.09176524621057 L 68.98119170977148 90.55348851819258 C 70.81888641971327 92.03982087924476 73.08522750510329 92.84095253128311 75.44885761821692 92.84095253128311 C 78.3373052079667 92.84095253128311 81.06396725398267 91.64231954482557 83.01980914727417 89.51941627906172 L 83.56185642148219 88.93066124968317 L 133.72039584198527 117.89075409030909 L 133.35041119054077 118.7149503319257 C 132.9039760542528 119.70955191924861 132.56345955403393 120.74945895038587 132.33829542082557 121.81633350760313 L 132.1709594699059 122.60995347783165 L 88.88704063595517 122.6105026347264 L 88.71025134134786 121.83217080019199 C 87.65283012781825 117.17857604884216 83.49987033699071 113.86927815027451 78.72091091167485 113.86927815027451 Z  M 88.89705294291068 125.55232631336833 L 131.9902672387968 125.55232631336833 L 132.0731114789145 126.4615830354278 C 132.17929488705792 127.62491307865338 132.41585402583163 128.7757301897779 132.79112431238778 129.88235978362366 L 133.05491574931582 130.65929911317505 L 83.56352350491264 159.23077519342843 L 83.02120165225725 158.64230454887036 C 82.31514278761725 157.87620126161664 81.49678133800703 157.22546014774656 80.59474210656381 156.70481037968636 C 77.2654294004582 154.7828887310169 73.15054775645567 154.87878525375743 69.91546448966014 156.93636826816896 L 69.3667390753574 157.28494560709242 L 24.975376718591974 127.79976071138304 L 25.191921049827812 127.08758266991612 C 25.266969223315186 126.84185457227517 25.33368197965055 126.5936258494886 25.38761703181055 126.34233753828863 L 25.557179029428454 125.55232631336833 L 68.54754408403195 125.55232631336833 L 68.72072463333117 126.33649293990908 C 69.75563041417726 131.01678063889148 73.92081875228544 134.35748835056256 78.72091091167485 134.35777273538304 C 83.52238576967423 134.35777273538304 87.68813307105026 131.0176141806067 88.72359781516414 126.3362183614617 L 88.89705294291068 125.55232631336833 Z  M 215.76443591315328 113.86927815027451 C 210.98658460800002 113.86927815027451 206.83417397406723 117.17857604884216 205.7773117238054 121.83133725847676 L 205.6005224291981 122.60995347783165 L 162.6020965358899 122.6105026347264 L 162.43475077859713 121.81660808605056 C 162.20987103020926 120.7502924921011 161.86990368688507 119.70955191924861 161.42264481525504 118.71578387364093 L 161.05154223727484 117.89131305357688 L 211.20729664781177 88.93205375466624 L 211.74962830684026 89.52052439922426 C 212.45679529164286 90.28746122819325 213.2759902829683 90.93876130533118 214.17913763457406 91.46051919355392 C 218.40631205717372 93.9022668749414 223.7848723605389 93.03331434640506 227.01856312235137 89.38349014124543 L 227.5953641828966 88.73219006410744 L 271.07163502559615 117.6094386646156 L 270.5234685745613 118.44142116648953 C 269.8438182727334 119.47326735892221 269.3587460263526 120.62103468800638 269.0902279175808 121.82716954990076 L 268.9162138265664 122.60995347783165 L 225.9300164805389 122.6105026347264 L 225.75321737955838 121.83217080019199 C 224.69579616602877 117.17857604884216 220.54366991691646 113.86927815027451 215.76443591315328 113.86927815027451 Z  M 225.9391854394061 125.55232631336833 L 268.91648840501375 125.55232631336833 L 269.08994353276034 126.33677732472955 C 269.2784122177536 127.18904921258877 269.5805759927001 128.01435357436793 269.98002879537023 128.79074374702458 L 270.38975867707006 129.58631518550396 L 226.8214844417587 158.52527529205628 L 226.24468338121343 158.00017343059966 C 224.344992780407 156.27088817549946 221.89185989982715 155.3246614267776 219.32280588259582 155.3249360052249 C 216.43519183456127 155.3252105836723 213.70963790870783 156.52301002841472 211.7529624737011 158.64453059556865 L 211.21063081467267 159.23244227685888 L 161.72146461696767 130.6617997383206 L 161.97943106826236 129.88736103391483 C 162.34969029815423 128.7762891530457 162.59069172395132 127.62435411538559 162.70077806859646 126.45852344701439 L 162.78638770593406 125.55232631336833 L 205.59051012224253 125.55232631336833 L 205.76369067154175 126.33649293990908 C 206.79859645238778 131.016496254071 210.96406917531644 134.35748835056256 215.76387694988543 134.35777273538304 C 220.56480265099006 134.35777273538304 224.73165807252863 131.01788875905402 225.76600489010687 126.33677732472955 L 225.9391854394061 125.55232631336833 Z  M 179.6111624551718 58.3232938523596 C 173.95101214766592 58.3232938523596 169.36802328278017 62.909057920838336 169.3677487043328 68.56864926507643 C 169.36747412588542 71.39094306175866 170.51579061186428 74.05951215341179 172.5622433927846 76.00061506790394 L 173.13431778148603 76.5432213053798 L 153.35133290412287 110.80904251620859 L 152.5654893877785 110.52772709051516 C 151.63844390487932 110.1958205858956 150.67997880250365 109.95509373854588 149.7065099492544 109.80721363189627 L 148.85673868654075 109.67823040624893 L 148.85673868654075 51.23601225832698 L 149.63646302605824 51.060056505434886 C 150.65273669797628 50.831009048471 151.62815701947645 50.44934500664061 152.53047082936698 49.928695238580474 C 155.96791841186686 47.9439441573312 157.9582297066752 44.14707338723707 157.64522988943102 40.1995375005273 L 157.5915792220915 39.525721990705904 L 204.89613064798849 16.037310772592605 L 205.40232582206974 16.636911650641935 C 205.6764041444006 16.961581051898804 205.97161520080513 17.26874607713654 206.28517398131712 17.555621716389055 L 206.87782214082435 18.097953375417546 L 183.28156043113725 58.968474752670716 L 182.52518506601857 58.743869582730156 C 181.579232895744 58.46311312030457 180.59769339741692 58.3232938523596 179.6111624551718 58.3232938523596 Z  M 185.85033006354817 60.401989988098535 L 209.42269364194172 19.57149822592129 L 210.18684546094462 19.810832568287992 C 213.83500258267392 20.952480720545225 217.86147977299962 19.955937471344612 220.55645742746495 17.246505222900453 L 221.09907347131391 16.700839397011123 L 264.4377412863936 41.72618386147582 L 264.0944397762087 42.539259675974336 C 263.2952595924211 44.43311548477436 262.89191365962245 46.46094596313981 262.8916390811751 48.51574396758525 C 262.8916390811751 50.431830824248266 263.24494309194233 52.32456870651259 263.9407150711795 54.110289638918346 L 264.2526067682611 54.91030336442111 L 227.4366382275763 76.16740186192891 L 226.89431637492098 75.57753871238782 C 226.18909105199614 74.81031749859835 225.37044521756545 74.1576347228505 224.4678568292275 73.63725953323774 C 219.55157876111232 70.80246261082749 213.250140683424 72.48921762570615 210.4117252093325 77.40494653692673 C 208.96931559348482 79.90312008924667 208.6429693024243 82.86856732073466 209.5027430657203 85.62024542457982 L 209.74152825119225 86.38440704995577 L 159.44011978070395 115.42399035109247 L 158.89889624183806 114.81356323711867 C 158.21980490327806 114.04800910675965 157.46815621000317 113.34973650237691 156.6509028805555 112.73402375329147 L 155.94456943746812 112.20142001639806 L 175.658066354903 78.05597203561723 L 176.42917089244796 78.30753492526458 C 177.45712395475195 78.64333456001276 178.52983330397566 78.81178843746812 179.6111624551718 78.81178843746812 C 185.27019483614205 78.81233759436282 189.8554097477261 74.2274070675993 189.8554097477261 68.56864926507643 C 189.8554097477261 65.64795832050811 188.62759299486336 62.892661664981745 186.45464780706814 60.94377249023228 L 185.85033006354817 60.401989988098535 Z  M 115.32450282969981 58.3232938523596 C 114.29265663726719 58.3232938523596 113.2688712835392 58.47729313583608 112.2831640766361 58.78278127127038 L 111.52040476261632 59.01906583159678 L 87.89661656358143 18.10212108399361 L 88.4856461714073 17.559789424965118 C 88.98433947005182 17.1011257413964 89.43549147181054 16.593822447152604 89.83494427448059 16.04648953783294 L 90.33196068332163 15.365172152574644 L 137.33241647876733 38.70625242093308 L 137.21788784709886 39.43120816657529 C 136.85234548267775 41.752867002735286 137.29794707725054 44.12705857969917 138.4732212829363 46.161567198159275 C 139.91730778858746 48.66140783390972 142.31874147007872 50.426270610689244 145.13436693303933 51.0572813018419 L 145.91574854961405 51.23240351301888 L 145.91491500789888 109.67934833278463 L 145.06403562502268 109.80748821034365 C 144.09140031348866 109.95398561838334 143.1334941743808 110.19081933560443 142.20866493180668 110.52633458553208 L 141.42087975358461 110.8120922982489 L 121.68959407531005 76.63440096264952 L 122.27639763643774 76.09206930362103 C 124.38151214136192 74.1465142957324 125.5693090855219 71.43680746884093 125.5693090855219 68.56864926507643 C 125.5693090855219 62.908498957570544 120.98492771565307 58.3232938523596 115.32450282969981 58.3232938523596 Z  M 119.14638965762302 78.1090637396889 L 138.82792760505978 112.20058647468284 L 138.12297686058238 112.73319021157624 C 137.3057235311347 113.35057004409208 136.55324129614465 114.05135307999359 135.87164933243898 114.81523032054906 L 135.3301512151257 115.42232326766202 L 85.03374399492864 86.38440704995577 L 85.27280375884797 85.61997084613245 C 85.5838619142144 84.62620280052477 85.73924389630079 83.59158140449915 85.73924389630079 82.55055644682625 C 85.73896931785342 76.86650800802681 81.13346502028415 72.259895590295 75.44885761821692 72.26017016874232 C 72.56124357018243 72.26044474718975 69.83457171779324 73.45657710850173 67.87957317259006 75.57948037426559 L 67.33724151356157 76.1679510188236 L 29.28650350147197 54.19951782793726 L 29.61256540771197 53.39338492560762 C 30.35281909542141 51.56179958611966 30.72669687699451 49.60874270279419 30.72669687699451 47.6337293500531 C 30.72669687699451 46.00896041966587 30.475683144241884 44.395302110023636 29.969772354981103 42.85087679460861 L 29.716807153977584 42.07921329379576 L 73.67619877480698 16.700564818563805 L 74.218814818656 17.247338764615677 C 76.90989934299259 19.959271638205394 80.93776903830147 20.954147803975673 84.58370011333247 19.810832568287992 L 85.34841089560317 19.571223647473914 L 108.9733072148006 60.49066902022264 L 108.38483657024253 61.03327525769856 C 106.27193580506113 62.98022277057021 105.0810890788608 65.693548149143 105.08081450041342 68.56864926507643 C 105.0805301155929 74.22684810433151 109.66630399044479 78.81122947420027 115.32422825125244 78.81178843746812 C 116.36163465724414 78.8120630159155 117.39181376624637 78.65778915399164 118.38223783862017 78.34812350360829 L 119.14638965762302 78.1090637396889 Z  M 65.15929507547517 82.55028186837882 C 65.15874591858042 84.09832573547516 65.50232200721277 85.61580313755644 66.17335250706813 87.01124022615932 L 66.55084884032257 87.79596581596797 L 22.74629004468477 116.89142583114233 L 22.170322525854687 116.38078837003769 C 21.04090292087804 115.37924387054585 19.70355878663807 114.63426351099264 18.25502999396349 114.20785298861563 L 17.53729173893757 113.99658448611837 L 17.536742582042848 62.88293374284666 L 18.343424641267177 62.72392340270585 C 21.842868114631642 62.034270600295656 24.98454567745918 60.13569792602493 27.245051970842837 57.3831764740915 L 27.783490499742697 56.727434109930186 L 65.86591290338302 78.71365606165631 L 65.62574501930109 79.478366843927 C 65.31329435895165 80.47352739451776 65.15929507547517 81.50759963364862 65.15929507547517 82.55028186837882 Z  M 228.90574079105662 78.7142150249241 L 265.7272695453005 57.45489048071806 L 266.2640409907699 58.1250972452313 C 268.7669412149337 61.24926062566652 272.379795393431 63.283494665679314 276.35845670842366 63.778010449374676 L 277.2351954972173 63.88725344593149 L 277.2351954972173 113.9365498698777 L 276.49077410093184 114.13335397202297 C 275.56567027991036 114.37797394950144 274.678654412087 114.75406797139965 273.8572333740634 115.2444258528921 L 273.3162942200179 115.56715359227132 L 228.9983129533094 86.13089269205756 L 229.2051293624102 85.42427486414971 C 229.77414416269826 83.4812204814067 229.74746102143868 81.40919267938943 229.14452597652863 79.47809226547969 L 228.90574079105662 78.7142150249241 Z  M 272.8923745164134 132.26572031945466 C 273.9639757454745 133.08519969560058 275.18845833147645 133.68506534572413 276.4924411843622 134.03225998603773 L 277.2351954972173 134.22989762989823 L 277.2351954972173 184.09377515089147 L 276.3815311043751 184.2199831729459 C 272.4153729151104 184.80706131252094 268.85310981553914 186.92357082301055 266.423325909358 190.1033363390361 L 265.8896042459289 190.80161874979194 L 228.90796683775486 169.45167351158392 L 229.14702660167424 168.68752169258113 C 229.4580847570406 167.692086563543 229.6134765455001 166.6574553611443 229.6131921606797 165.61477312641404 C 229.6131921606797 164.26547502334074 229.35356843232765 162.93425006592764 228.83681179439614 161.68752662568954 L 228.5215859304537 160.92698355199485 L 272.3255857628237 131.83235707853567 L 272.8923745164134 132.26572031945466 Z " fill-rule="evenodd" fill="#FFF" stroke-width="1" stroke="rgba(0,0,0,0)" stroke-linejoin="miter" stroke-linecap="square"/></svg>